<?xml version="1.0" encoding="utf-8"?>
<!-- Generator: Adobe Illustrator 19.2.0, SVG Export Plug-In . SVG Version: 6.00 Build 0)  -->
<svg version="1.1" id="Isolation_Mode" xmlns="http://www.w3.org/2000/svg" xmlns:xlink="http://www.w3.org/1999/xlink" x="0px"
	 y="0px" viewBox="0 0 467 142" style="enable-background:new 0 0 467 142;" xml:space="preserve">
<style type="text/css">
	.st0{fill:url(#XMLID_2_);}
	.st1{fill:#35D34F;}
	.st2{fill:#336666;}
</style>
<linearGradient id="XMLID_2_" gradientUnits="userSpaceOnUse" x1="94.4721" y1="64.075" x2="111.4721" y2="77.075">
	<stop  offset="0" style="stop-color:#35C54F"/>
	<stop  offset="1" style="stop-color:#35D34F"/>
</linearGradient>
<path id="XMLID_21_" class="st0" d="M145.3,78.1c0,4.8-0.9,9.1-2.6,12.9c-1.7,3.9-4.1,7.1-7,9.8c-3,2.7-6.4,4.8-10.3,6.3
	c-3.9,1.5-8.1,2.2-12.5,2.2c-4.4,0-8.5-0.7-12.5-2.2c-3.9-1.5-7.4-3.6-10.3-6.3c-2.9-2.7-5.3-6-7-9.8c-1.7-3.9-2.6-8.2-2.6-12.9
	c0-4.8,0.9-9.1,2.6-12.9c1.7-3.8,4-7.1,7-9.7c2.9-2.7,6.4-4.7,10.3-6.1c3.9-1.4,8.1-2.1,12.5-2.1c4.5,0,8.6,0.7,12.5,2.1
	c3.9,1.4,7.3,3.4,10.3,6.1c3,2.7,5.3,5.9,7,9.7C144.4,69,145.3,73.3,145.3,78.1z M126.8,78.1c0-1.9-0.3-3.7-0.9-5.5
	c-0.6-1.8-1.5-3.4-2.7-4.7c-1.2-1.4-2.6-2.5-4.3-3.3c-1.7-0.9-3.7-1.3-6-1.3c-2.3,0-4.3,0.4-6,1.3c-1.7,0.9-3.1,2-4.3,3.3
	c-1.1,1.4-2,2.9-2.6,4.7c-0.6,1.8-0.9,3.6-0.9,5.5c0,1.9,0.3,3.7,0.9,5.5c0.6,1.8,1.5,3.4,2.6,4.9c1.2,1.4,2.6,2.6,4.3,3.5
	c1.7,0.9,3.7,1.3,6,1.3c2.3,0,4.3-0.4,6-1.3c1.7-0.9,3.2-2,4.3-3.5c1.2-1.4,2.1-3.1,2.6-4.9C126.5,81.8,126.8,79.9,126.8,78.1z"/>
<path id="XMLID_24_" class="st1" d="M166.6,63.4v22.3c0,2.7,0.5,4.8,1.6,6.2c1.1,1.4,2.9,2.1,5.7,2.1c0.9,0,1.9-0.1,3-0.2
	c1.1-0.2,1.9-0.4,2.6-0.7l0.2,9.3c0,2.9-2,5.5-4.9,6c0,0,0,0-0.1,0c-2,0.4-4.1,0.5-6.1,0.5c-3.9,0-7.2-0.5-9.8-1.5
	c-2.7-1-4.8-2.4-6.4-4.2c-1.6-1.8-2.8-4-3.5-6.6c-0.7-2.5-1.1-5.4-1.1-8.5V63.4h-2.2c-3.9,0-7.1-3.2-7.1-7.1v0
	c0-3.9,3.2-7.1,7.1-7.1h2.1v-5.9c0-5.2,4.2-9.4,9.4-9.4h0c5.2,0,9.4,4.2,9.4,9.4v5.9h6.6c3.9,0,7.1,3.2,7.1,7.1v0
	c0,3.9-3.2,7.1-7.1,7.1H166.6z"/>
<path id="XMLID_26_" class="st1" d="M239.5,78.1c0,4.8-0.9,9.1-2.6,12.9c-1.7,3.9-4.1,7.1-7,9.8c-3,2.7-6.4,4.8-10.3,6.3
	c-3.9,1.5-8.1,2.2-12.5,2.2c-4.4,0-8.5-0.7-12.5-2.2c-3.9-1.5-7.4-3.6-10.3-6.3c-2.9-2.7-5.3-6-7-9.8c-1.7-3.9-2.6-8.2-2.6-12.9
	c0-4.8,0.9-9.1,2.6-12.9c1.7-3.8,4-7.1,7-9.7c2.9-2.7,6.4-4.7,10.3-6.1c3.9-1.4,8.1-2.1,12.5-2.1c4.5,0,8.6,0.7,12.5,2.1
	c3.9,1.4,7.3,3.4,10.3,6.1c3,2.7,5.3,5.9,7,9.7C238.6,69,239.5,73.3,239.5,78.1z M221,78.1c0-1.9-0.3-3.7-0.9-5.5
	c-0.6-1.8-1.5-3.4-2.7-4.7c-1.2-1.4-2.6-2.5-4.3-3.3c-1.7-0.9-3.7-1.3-6-1.3c-2.3,0-4.3,0.4-6,1.3c-1.7,0.9-3.1,2-4.3,3.3
	c-1.1,1.4-2,2.9-2.6,4.7c-0.6,1.8-0.9,3.6-0.9,5.5c0,1.9,0.3,3.7,0.9,5.5c0.6,1.8,1.5,3.4,2.6,4.9c1.2,1.4,2.6,2.6,4.3,3.5
	c1.7,0.9,3.7,1.3,6,1.3c2.3,0,4.3-0.4,6-1.3c1.7-0.9,3.2-2,4.3-3.5c1.2-1.4,2.1-3.1,2.6-4.9C220.7,81.8,221,79.9,221,78.1z"/>
<path id="XMLID_29_" class="st2" d="M240.2,97.7v-69c0-5.4,4.4-9.8,9.8-9.8h0c5.4,0,9.8,4.4,9.8,9.8v69c0,5.4-4.4,9.8-9.8,9.8h0
	C244.6,107.5,240.2,103.1,240.2,97.7z"/>
<path id="XMLID_31_" class="st2" d="M321,79c0,0.8,0,1.6,0,2.3c0,0.8,0,1.5-0.1,2.2h-42.3c0.2,1.6,0.6,3.1,1.5,4.5
	c0.8,1.3,1.9,2.5,3.2,3.5c1.3,1,2.7,1.7,4.3,2.3c1.6,0.5,3.3,0.8,5,0.8c3,0,5.6-0.6,7.7-1.7c0.6-0.3,1.2-0.7,1.7-1.1
	c2.6-1.8,6-1.7,8.6-0.1v0c4.7,3,4.8,10,0.1,12.9c-0.9,0.5-1.8,1-2.7,1.5c-4.5,2.1-9.7,3.2-15.6,3.2c-4.4,0-8.5-0.7-12.4-2
	c-3.9-1.4-7.3-3.4-10.2-6c-2.9-2.6-5.2-5.8-6.9-9.7c-1.7-3.8-2.5-8.2-2.5-13.1c0-4.8,0.8-9.1,2.5-12.9c1.6-3.9,3.9-7.1,6.7-9.8
	c2.8-2.7,6.1-4.8,10-6.3c3.8-1.5,8-2.2,12.4-2.2c4.3,0,8.2,0.7,11.8,2.2c3.6,1.4,6.7,3.5,9.3,6.3c2.6,2.7,4.6,6.1,6,10
	C320.3,69.5,321,74,321,79z M303.3,71.6c0-3-1-5.7-2.9-7.8c-1.9-2.2-4.8-3.3-8.6-3.3c-1.9,0-3.6,0.3-5.2,0.9
	c-1.6,0.6-2.9,1.4-4.1,2.4c-1.2,1-2.1,2.2-2.8,3.6c-0.7,1.4-1.1,2.8-1.2,4.3H303.3z"/>
<path id="XMLID_34_" class="st2" d="M383.1,101.9c0,5.7-0.8,10.7-2.5,14.9c-1.6,4.2-3.9,7.7-6.9,10.5c-3,2.8-6.6,4.8-10.8,6.2
	c-4.3,1.4-9,2-14.1,2c-5.2,0-10.4-0.8-15.9-2.3c-2-0.6-3.9-1.2-5.7-2c-4.7-2-6.3-7.8-3.4-12v0c2.3-3.3,6.7-4.4,10.2-2.6
	c1.2,0.6,2.4,1.2,3.7,1.6c3.4,1.2,6.7,1.8,10,1.8c5.6,0,9.8-1.5,12.5-4.5c2.7-3,4-6.9,4-11.8v-3.5h-0.4c-1.8,2.3-4.2,4.2-7.3,5.6
	c-3,1.4-6.5,2.1-10.4,2.1c-4.5,0-8.4-0.8-11.8-2.4c-3.4-1.6-6.3-3.8-8.7-6.5c-2.4-2.7-4.2-5.9-5.4-9.5c-1.2-3.6-1.9-7.5-1.9-11.5
	c0-4.1,0.6-7.9,1.9-11.6c1.2-3.7,3.1-6.9,5.4-9.7c2.4-2.8,5.3-5.1,8.7-6.7c3.4-1.7,7.3-2.5,11.7-2.5c3.7,0,7.2,0.7,10.5,2.2
	c3.4,1.5,6.1,3.8,8.1,6.9h0.2v0c0-4.1,3.4-7.5,7.5-7.5h3.2c4.1,0,7.5,3.4,7.5,7.5V101.9z M364.8,77.9c0-2-0.3-3.8-1-5.6
	c-0.7-1.8-1.6-3.4-2.9-4.7c-1.2-1.4-2.7-2.4-4.5-3.2c-1.7-0.8-3.7-1.2-5.9-1.2c-2.2,0-4.1,0.4-5.8,1.2c-1.7,0.8-3.1,1.8-4.3,3.2
	c-1.2,1.3-2.1,2.9-2.7,4.7c-0.6,1.8-0.9,3.7-0.9,5.7c0,2,0.3,3.8,0.9,5.6c0.6,1.8,1.5,3.4,2.7,4.7c1.2,1.4,2.6,2.5,4.3,3.3
	c1.7,0.8,3.6,1.2,5.8,1.2c2.2,0,4.2-0.4,5.9-1.2c1.8-0.8,3.2-1.9,4.5-3.2c1.2-1.3,2.1-2.9,2.8-4.7C364.5,81.9,364.8,80,364.8,77.9z"
	/>
<path id="XMLID_37_" class="st2" d="M391.2,63c-3.2-3.4-2.3-8.9,1.8-11.1c1.5-0.8,3.1-1.5,4.8-2.1c4.6-1.6,9.2-2.5,14-2.5
	c4.9,0,9.1,0.6,12.5,1.8c3.4,1.2,6.1,3.1,8.3,5.6c2.1,2.5,3.6,5.7,4.6,9.6c1,3.9,1.5,8.5,1.5,13.8v23.2c0,3.4-2.8,6.2-6.2,6.2h-5.2
	c-3.4,0-6.2-2.8-6.2-6.2l0,0h-0.4c-1.5,2.4-3.7,4.3-6.7,5.6c-3,1.3-6.3,2-9.8,2c-2.3,0-4.8-0.3-7.3-0.9c-2.5-0.6-4.8-1.6-6.9-3
	c-2.1-1.4-3.8-3.3-5.1-5.6c-1.3-2.3-2-5.2-2-8.7c0-4.2,1.2-7.6,3.5-10.2c2.3-2.6,5.3-4.6,8.9-6c3.6-1.4,7.7-2.3,12.1-2.8
	c4.5-0.5,8.8-0.7,13-0.7V70c0-2.9-1-5-3-6.4c-2-1.4-4.5-2-7.5-2c-2.7,0-5.4,0.6-7.9,1.8c-0.7,0.3-1.4,0.7-2.1,1.1
	C397,66,393.5,65.4,391.2,63L391.2,63z M421,82h-2.5c-2.1,0-4.2,0.1-6.4,0.3c-2.1,0.2-4.1,0.6-5.7,1.1c-1.7,0.5-3.1,1.3-4.2,2.4
	c-1.1,1.1-1.6,2.4-1.6,4.2c0,1.1,0.3,2,0.8,2.8c0.5,0.8,1.2,1.4,1.9,1.9c0.8,0.5,1.7,0.8,2.7,1c1,0.2,2,0.3,2.9,0.3
	c3.9,0,6.9-1.1,9-3.2c2.1-2.1,3.1-5.1,3.1-8.7V82z"/>
<path id="XMLID_40_" class="st2" d="M441.4,97.7v-69c0-5.4,4.4-9.8,9.8-9.8l0,0c5.4,0,9.8,4.4,9.8,9.8v69c0,5.4-4.4,9.8-9.8,9.8l0,0
	C445.8,107.5,441.4,103.1,441.4,97.7z"/>
<path id="XMLID_4_" class="st1" d="M132.3,24.8c-11.9,12-35.4,37.2-54.4,66.4c0,0-10.1,17.8-25.4,17.8c-15.2,0-22.4-10.1-22.4-10.1
	L9.7,77.5c-4.8-5-4.7-13,0.3-17.9l0,0c4.9-4.8,12.6-4.8,17.6-0.2l16,15c0,0,3,3.8,6.8,3.8c3.8,0,5.1-2.1,8.5-5.5
	c3.1-3.1,27.6-37.7,56.1-64.5c4-3.7,12-3,16.3,0.5c0.1,0.1,0.2,0.1,0.2,0.2C136.4,12.8,136.8,20.2,132.3,24.8z"/>
<circle id="XMLID_16_" class="st1" cx="32.8" cy="24" r="12.1"/>
<path id="XMLID_20_" class="st1" d="M79.4,14.3c-2.4-1.8-5.5-2.7-8.9-2.3c-5.1,0.7-9.3,4.6-10.3,9.6c-0.3,1.8-0.3,3.6,0.1,5.2
	c0.5,2,2.7,3,4.5,2.1l13.7-6.7C81.7,20.6,82.2,16.3,79.4,14.3z"/>
</svg>
